<svg width="127" height="254" viewBox="0 0 127 254" fill="none" xmlns="http://www.w3.org/2000/svg">
<path d="M127 60.3584H125.599V22.1261C125.599 16.2579 123.262 10.6301 119.101 6.4806C114.94 2.33114 109.297 0 103.413 0H22.1868C19.2732 0 16.3881 0.572311 13.6963 1.68425C11.0045 2.7962 8.5586 4.426 6.49837 6.4806C4.43813 8.5352 2.80386 10.9744 1.68887 13.6588C0.573877 16.3433 0 19.2205 0 22.1261V231.874C0 234.779 0.573877 237.657 1.68887 240.341C2.80386 243.026 4.43813 245.465 6.49837 247.519C8.5586 249.574 11.0045 251.204 13.6963 252.316C16.3881 253.428 19.2732 254 22.1868 254H103.411C109.295 254 114.938 251.669 119.099 247.519C123.26 243.37 125.598 237.742 125.598 231.874V87.5732H127V60.3584Z" fill="#090814"/>
<path d="M104.308 5.75491H93.7063C94.1938 6.94698 94.3799 8.24031 94.2481 9.52098C94.1163 10.8017 93.6708 12.0304 92.9507 13.0989C92.2307 14.1674 91.2582 15.0429 90.1189 15.6483C88.9796 16.2537 87.7085 16.5704 86.4176 16.5706H39.882C38.5911 16.5705 37.32 16.2538 36.1806 15.6484C35.0413 15.043 34.0688 14.1675 33.3487 13.099C32.6285 12.0305 32.183 10.8018 32.0512 9.52107C31.9194 8.24037 32.1055 6.94701 32.593 5.75491H22.6919C18.2972 5.75491 14.0826 7.4959 10.9751 10.5949C7.86768 13.6938 6.12193 17.8969 6.12193 22.2795V231.722C6.12193 236.105 7.86768 240.308 10.9751 243.407C14.0826 246.506 18.2972 248.247 22.6919 248.247H104.305C108.7 248.247 112.914 246.506 116.022 243.407C119.129 240.308 120.875 236.105 120.875 231.722V22.2799C120.875 17.8978 119.13 13.6951 116.023 10.5962C112.916 7.49733 108.702 5.75602 104.308 5.75527L104.308 5.75491Z" fill="white"/>
<path d="M18.4813 51.9551H106.378C107.13 51.9551 107.851 52.253 108.383 52.7833C108.915 53.3136 109.213 54.0328 109.213 54.7827V77.4037C109.213 78.1536 108.915 78.8728 108.383 79.4031C107.851 79.9334 107.13 80.2313 106.378 80.2313H18.4813C17.7294 80.2313 17.0082 79.9334 16.4764 79.4031C15.9447 78.8728 15.646 78.1536 15.646 77.4037V54.7827C15.646 54.0328 15.9447 53.3136 16.4764 52.7833C17.0082 52.253 17.7294 51.9551 18.4813 51.9551Z" fill="#F2F2F2"/>
<path d="M29.8228 75.5283C34.5206 75.5283 38.329 71.7304 38.329 67.0454C38.329 62.3604 34.5206 58.5625 29.8228 58.5625C25.125 58.5625 21.3167 62.3604 21.3167 67.0454C21.3167 71.7304 25.125 75.5283 29.8228 75.5283Z" fill="#2D5BFF"/>
<path d="M28.98 70.2809C28.7882 70.2812 28.6016 70.2191 28.4484 70.1042L28.4388 70.0971L26.4399 68.5709C26.2567 68.4267 26.1379 68.2164 26.109 67.9856C26.08 67.7547 26.1434 67.5217 26.2853 67.337C26.4272 67.1523 26.6363 67.0308 26.8673 66.9985C27.0984 66.9663 27.3329 67.0261 27.5201 67.1649L28.8148 68.1545L31.8746 64.175C32.0179 63.9886 32.2296 63.8667 32.4631 63.8359C32.6965 63.8052 32.9327 63.8681 33.1196 64.011L33.1005 64.0368L33.12 64.0114C33.3067 64.1545 33.4288 64.3655 33.4596 64.5983C33.4904 64.8311 33.4274 65.0665 33.2845 65.2531L29.686 69.9352C29.6028 70.0431 29.4957 70.1304 29.3731 70.1904C29.2506 70.2503 29.1158 70.2813 28.9793 70.2809H28.98Z" fill="white"/>
<path d="M43.9997 62.9121H99.2895C99.6655 62.9121 100.026 63.0611 100.292 63.3262C100.558 63.5913 100.707 63.951 100.707 64.3259C100.707 64.7009 100.558 65.0605 100.292 65.3256C100.026 65.5908 99.6655 65.7397 99.2895 65.7397H43.9997C43.6237 65.7397 43.2631 65.5908 42.9973 65.3256C42.7314 65.0605 42.582 64.7009 42.582 64.3259C42.582 63.951 42.7314 63.5913 42.9973 63.3262C43.2631 63.0611 43.6237 62.9121 43.9997 62.9121Z" fill="#090814"/>
<path d="M43.9997 68.5674H76.6065C76.9825 68.5674 77.3431 68.7163 77.609 68.9815C77.8749 69.2466 78.0242 69.6062 78.0242 69.9812C78.0242 70.3562 77.8749 70.7158 77.609 70.9809C77.3431 71.2461 76.9825 71.395 76.6065 71.395H43.9997C43.6237 71.395 43.2631 71.2461 42.9973 70.9809C42.7314 70.7158 42.582 70.3562 42.582 69.9812C42.582 69.6062 42.7314 69.2466 42.9973 68.9815C43.2631 68.7163 43.6237 68.5674 43.9997 68.5674Z" fill="#090814"/>
<path d="M18.4813 52.3085C17.8236 52.3093 17.193 52.5702 16.7279 53.034C16.2628 53.4979 16.0011 54.1267 16.0004 54.7827V77.4037C16.0011 78.0596 16.2628 78.6885 16.7279 79.1524C17.193 79.6162 17.8236 79.8771 18.4813 79.8778H106.378C107.036 79.8771 107.666 79.6162 108.131 79.1524C108.597 78.6885 108.858 78.0596 108.859 77.4037V54.7827C108.858 54.1267 108.597 53.4979 108.131 53.034C107.666 52.5702 107.036 52.3093 106.378 52.3085H18.4813ZM18.4813 51.9551H106.378C107.13 51.9551 107.851 52.253 108.383 52.7833C108.915 53.3136 109.213 54.0328 109.213 54.7827V77.4037C109.213 78.1536 108.915 78.8728 108.383 79.4031C107.851 79.9334 107.13 80.2313 106.378 80.2313H18.4813C17.7294 80.2313 17.0082 79.9334 16.4764 79.4031C15.9447 78.8728 15.646 78.1536 15.646 77.4037V54.7827C15.646 54.0328 15.9447 53.3136 16.4764 52.7833C17.0082 52.253 17.7294 51.9551 18.4813 51.9551Z" fill="#707070"/>
<path d="M18.4813 88.7142H106.378C107.13 88.7142 107.851 89.0121 108.383 89.5424C108.915 90.0726 109.213 90.7919 109.213 91.5418V114.163C109.213 114.913 108.915 115.632 108.383 116.162C107.851 116.692 107.13 116.99 106.378 116.99H18.4813C17.7294 116.99 17.0082 116.692 16.4764 116.162C15.9447 115.632 15.646 114.913 15.646 114.163V91.5418C15.646 90.7919 15.9447 90.0726 16.4764 89.5424C17.0082 89.0121 17.7294 88.7142 18.4813 88.7142Z" fill="white"/>
<path d="M29.8228 112.287C34.5206 112.287 38.329 108.489 38.329 103.804C38.329 99.1192 34.5206 95.3213 29.8228 95.3213C25.125 95.3213 21.3167 99.1192 21.3167 103.804C21.3167 108.489 25.125 112.287 29.8228 112.287Z" fill="#E6E6E6"/>
<path d="M43.9997 99.6712H99.2895C99.6655 99.6712 100.026 99.8201 100.292 100.085C100.558 100.35 100.707 100.71 100.707 101.085C100.707 101.46 100.558 101.82 100.292 102.085C100.026 102.35 99.6655 102.499 99.2895 102.499H43.9997C43.6237 102.499 43.2631 102.35 42.9973 102.085C42.7314 101.82 42.582 101.46 42.582 101.085C42.582 100.71 42.7314 100.35 42.9973 100.085C43.2631 99.8201 43.6237 99.6712 43.9997 99.6712Z" fill="#F2F2F2"/>
<path d="M43.9997 105.326H76.6065C76.9825 105.326 77.3431 105.475 77.609 105.741C77.8749 106.006 78.0242 106.365 78.0242 106.74C78.0242 107.115 77.8749 107.475 77.609 107.74C77.3431 108.005 76.9825 108.154 76.6065 108.154H43.9997C43.6237 108.154 43.2631 108.005 42.9973 107.74C42.7314 107.475 42.582 107.115 42.582 106.74C42.582 106.365 42.7314 106.006 42.9973 105.741C43.2631 105.475 43.6237 105.326 43.9997 105.326Z" fill="#F2F2F2"/>
<path d="M18.4813 89.0676C17.8236 89.0684 17.193 89.3293 16.7279 89.7931C16.2628 90.257 16.0011 90.8858 16.0004 91.5418V114.163C16.0011 114.819 16.2628 115.448 16.7279 115.911C17.193 116.375 17.8236 116.636 18.4813 116.637H106.378C107.036 116.636 107.666 116.375 108.131 115.911C108.597 115.448 108.858 114.819 108.859 114.163V91.5418C108.858 90.8858 108.597 90.257 108.131 89.7931C107.666 89.3293 107.036 89.0684 106.378 89.0676H18.4813ZM18.4813 88.7142H106.378C107.13 88.7142 107.851 89.0121 108.383 89.5424C108.915 90.0726 109.213 90.7919 109.213 91.5418V114.163C109.213 114.913 108.915 115.632 108.383 116.162C107.851 116.692 107.13 116.99 106.378 116.99H18.4813C17.7294 116.99 17.0082 116.692 16.4764 116.162C15.9447 115.632 15.646 114.913 15.646 114.163V91.5418C15.646 90.7919 15.9447 90.0726 16.4764 89.5424C17.0082 89.0121 17.7294 88.7142 18.4813 88.7142Z" fill="#707070"/>
<path d="M18.4813 125.473H106.378C107.13 125.473 107.851 125.771 108.383 126.301C108.915 126.832 109.213 127.551 109.213 128.301V150.922C109.213 151.672 108.915 152.391 108.383 152.921C107.851 153.452 107.13 153.749 106.378 153.749H18.4813C17.7294 153.749 17.0082 153.452 16.4764 152.921C15.9447 152.391 15.646 151.672 15.646 150.922V128.301C15.646 127.551 15.9447 126.832 16.4764 126.301C17.0082 125.771 17.7294 125.473 18.4813 125.473Z" fill="#F2F2F2"/>
<path d="M29.8228 149.046C34.5206 149.046 38.329 145.249 38.329 140.564C38.329 135.879 34.5206 132.081 29.8228 132.081C25.125 132.081 21.3167 135.879 21.3167 140.564C21.3167 145.249 25.125 149.046 29.8228 149.046Z" fill="#2D5BFF"/>
<path d="M28.98 143.799C28.7882 143.799 28.6016 143.737 28.4484 143.622L28.4388 143.615L26.4399 142.089C26.2567 141.945 26.1379 141.735 26.109 141.504C26.08 141.273 26.1434 141.04 26.2853 140.855C26.4272 140.67 26.6363 140.549 26.8673 140.517C27.0984 140.484 27.3329 140.544 27.5201 140.683L28.8148 141.673L31.8746 137.693C32.0179 137.507 32.2296 137.385 32.4631 137.354C32.6965 137.323 32.9327 137.386 33.1196 137.529L33.1005 137.555L33.12 137.529C33.3067 137.673 33.4288 137.884 33.4596 138.116C33.4904 138.349 33.4274 138.585 33.2845 138.771L29.686 143.453C29.6028 143.561 29.4957 143.649 29.3731 143.709C29.2506 143.768 29.1158 143.799 28.9793 143.799H28.98Z" fill="white"/>
<path d="M43.9997 136.43H99.2895C99.6655 136.43 100.026 136.579 100.292 136.844C100.558 137.11 100.707 137.469 100.707 137.844C100.707 138.219 100.558 138.579 100.292 138.844C100.026 139.109 99.6655 139.258 99.2895 139.258H43.9997C43.6237 139.258 43.2631 139.109 42.9973 138.844C42.7314 138.579 42.582 138.219 42.582 137.844C42.582 137.469 42.7314 137.11 42.9973 136.844C43.2631 136.579 43.6237 136.43 43.9997 136.43Z" fill="#090814"/>
<path d="M43.9997 142.086H76.6065C76.9825 142.086 77.3431 142.234 77.609 142.5C77.8749 142.765 78.0242 143.124 78.0242 143.499C78.0242 143.874 77.8749 144.234 77.609 144.499C77.3431 144.764 76.9825 144.913 76.6065 144.913H43.9997C43.6237 144.913 43.2631 144.764 42.9973 144.499C42.7314 144.234 42.582 143.874 42.582 143.499C42.582 143.124 42.7314 142.765 42.9973 142.5C43.2631 142.234 43.6237 142.086 43.9997 142.086Z" fill="#090814"/>
<path d="M18.4813 125.827C17.8236 125.827 17.193 126.088 16.7279 126.552C16.2628 127.016 16.0011 127.645 16.0004 128.301V150.922C16.0011 151.578 16.2628 152.207 16.7279 152.671C17.193 153.134 17.8236 153.395 18.4813 153.396H106.378C107.036 153.395 107.666 153.134 108.131 152.671C108.597 152.207 108.858 151.578 108.859 150.922V128.301C108.858 127.645 108.597 127.016 108.131 126.552C107.666 126.088 107.036 125.827 106.378 125.827H18.4813ZM18.4813 125.473H106.378C107.13 125.473 107.851 125.771 108.383 126.301C108.915 126.832 109.213 127.551 109.213 128.301V150.922C109.213 151.672 108.915 152.391 108.383 152.921C107.851 153.452 107.13 153.749 106.378 153.749H18.4813C17.7294 153.749 17.0082 153.452 16.4764 152.921C15.9447 152.391 15.646 151.672 15.646 150.922V128.301C15.646 127.551 15.9447 126.832 16.4764 126.301C17.0082 125.771 17.7294 125.473 18.4813 125.473Z" fill="#707070"/>
<path d="M18.4813 162.232H106.378C107.13 162.232 107.851 162.53 108.383 163.061C108.915 163.591 109.213 164.31 109.213 165.06V187.681C109.213 188.431 108.915 189.15 108.383 189.68C107.851 190.211 107.13 190.509 106.378 190.509H18.4813C17.7294 190.509 17.0082 190.211 16.4764 189.68C15.9447 189.15 15.646 188.431 15.646 187.681V165.06C15.646 164.31 15.9447 163.591 16.4764 163.061C17.0082 162.53 17.7294 162.232 18.4813 162.232Z" fill="white"/>
<path d="M29.8228 185.805C34.5206 185.805 38.329 182.007 38.329 177.322C38.329 172.637 34.5206 168.839 29.8228 168.839C25.125 168.839 21.3167 172.637 21.3167 177.322C21.3167 182.007 25.125 185.805 29.8228 185.805Z" fill="#E6E6E6"/>
<path d="M43.9997 173.189H99.2895C99.6655 173.189 100.026 173.338 100.292 173.603C100.558 173.869 100.707 174.228 100.707 174.603C100.707 174.978 100.558 175.338 100.292 175.603C100.026 175.868 99.6655 176.017 99.2895 176.017H43.9997C43.6237 176.017 43.2631 175.868 42.9973 175.603C42.7314 175.338 42.582 174.978 42.582 174.603C42.582 174.228 42.7314 173.869 42.9973 173.603C43.2631 173.338 43.6237 173.189 43.9997 173.189Z" fill="#F2F2F2"/>
<path d="M43.9997 178.845H76.6065C76.9825 178.845 77.3431 178.994 77.609 179.259C77.8749 179.524 78.0242 179.883 78.0242 180.258C78.0242 180.633 77.8749 180.993 77.609 181.258C77.3431 181.523 76.9825 181.672 76.6065 181.672H43.9997C43.6237 181.672 43.2631 181.523 42.9973 181.258C42.7314 180.993 42.582 180.633 42.582 180.258C42.582 179.883 42.7314 179.524 42.9973 179.259C43.2631 178.994 43.6237 178.845 43.9997 178.845Z" fill="#F2F2F2"/>
<path d="M18.4813 162.586C17.8236 162.587 17.193 162.847 16.7279 163.311C16.2628 163.775 16.0011 164.404 16.0004 165.06V187.681C16.0011 188.337 16.2628 188.966 16.7279 189.43C17.193 189.893 17.8236 190.154 18.4813 190.155H106.378C107.036 190.154 107.666 189.893 108.131 189.43C108.597 188.966 108.858 188.337 108.859 187.681V165.06C108.858 164.404 108.597 163.775 108.131 163.311C107.666 162.847 107.036 162.587 106.378 162.586H18.4813ZM18.4813 162.232H106.378C107.13 162.232 107.851 162.53 108.383 163.061C108.915 163.591 109.213 164.31 109.213 165.06V187.681C109.213 188.431 108.915 189.15 108.383 189.68C107.851 190.211 107.13 190.509 106.378 190.509H18.4813C17.7294 190.509 17.0082 190.211 16.4764 189.68C15.9447 189.15 15.646 188.431 15.646 187.681V165.06C15.646 164.31 15.9447 163.591 16.4764 163.061C17.0082 162.53 17.7294 162.232 18.4813 162.232Z" fill="#707070"/>
<path d="M18.4813 198.991H106.378C107.13 198.991 107.851 199.289 108.383 199.82C108.915 200.35 109.213 201.069 109.213 201.819V224.44C109.213 225.19 108.915 225.909 108.383 226.439C107.851 226.97 107.13 227.268 106.378 227.268H18.4813C17.7294 227.268 17.0082 226.97 16.4764 226.439C15.9447 225.909 15.646 225.19 15.646 224.44V201.819C15.646 201.069 15.9447 200.35 16.4764 199.82C17.0082 199.289 17.7294 198.991 18.4813 198.991Z" fill="white"/>
<path d="M29.8228 222.564C34.5206 222.564 38.329 218.766 38.329 214.081C38.329 209.396 34.5206 205.599 29.8228 205.599C25.125 205.599 21.3167 209.396 21.3167 214.081C21.3167 218.766 25.125 222.564 29.8228 222.564Z" fill="#E6E6E6"/>
<path d="M43.9997 209.948H99.2895C99.6655 209.948 100.026 210.097 100.292 210.363C100.558 210.628 100.707 210.987 100.707 211.362C100.707 211.737 100.558 212.097 100.292 212.362C100.026 212.627 99.6655 212.776 99.2895 212.776H43.9997C43.6237 212.776 43.2631 212.627 42.9973 212.362C42.7314 212.097 42.582 211.737 42.582 211.362C42.582 210.987 42.7314 210.628 42.9973 210.363C43.2631 210.097 43.6237 209.948 43.9997 209.948Z" fill="#F2F2F2"/>
<path d="M43.9997 215.604H76.6065C76.9825 215.604 77.3431 215.753 77.609 216.018C77.8749 216.283 78.0242 216.643 78.0242 217.018C78.0242 217.392 77.8749 217.752 77.609 218.017C77.3431 218.282 76.9825 218.431 76.6065 218.431H43.9997C43.6237 218.431 43.2631 218.282 42.9973 218.017C42.7314 217.752 42.582 217.392 42.582 217.018C42.582 216.643 42.7314 216.283 42.9973 216.018C43.2631 215.753 43.6237 215.604 43.9997 215.604Z" fill="#F2F2F2"/>
<path d="M18.4813 199.345C17.8236 199.346 17.193 199.607 16.7279 200.07C16.2628 200.534 16.0011 201.163 16.0004 201.819V224.44C16.0011 225.096 16.2628 225.725 16.7279 226.189C17.193 226.653 17.8236 226.913 18.4813 226.914H106.378C107.036 226.913 107.666 226.653 108.131 226.189C108.597 225.725 108.858 225.096 108.859 224.44V201.819C108.858 201.163 108.597 200.534 108.131 200.07C107.666 199.607 107.036 199.346 106.378 199.345H18.4813ZM18.4813 198.991H106.378C107.13 198.991 107.851 199.289 108.383 199.82C108.915 200.35 109.213 201.069 109.213 201.819V224.44C109.213 225.19 108.915 225.909 108.383 226.439C107.851 226.97 107.13 227.268 106.378 227.268H18.4813C17.7294 227.268 17.0082 226.97 16.4764 226.439C15.9447 225.909 15.646 225.19 15.646 224.44V201.819C15.646 201.069 15.9447 200.35 16.4764 199.82C17.0082 199.289 17.7294 198.991 18.4813 198.991Z" fill="#707070"/>
<path d="M41.1643 27.5668H21.3167C18.1848 27.5668 15.646 30.0988 15.646 33.2221C15.646 36.3454 18.1848 38.8773 21.3167 38.8773H41.1643C44.2962 38.8773 46.8351 36.3454 46.8351 33.2221C46.8351 30.0988 44.2962 27.5668 41.1643 27.5668Z" fill="#2D5BFF"/>
<path d="M109.213 33.2221C109.213 30.0988 106.674 27.5668 103.543 27.5668C100.411 27.5668 97.8718 30.0988 97.8718 33.2221C97.8718 36.3454 100.411 38.8773 103.543 38.8773C106.674 38.8773 109.213 36.3454 109.213 33.2221Z" fill="#E6E6E6"/>
</svg>
