<svg width="12" height="14" viewBox="0 0 12 14" fill="none" xmlns="http://www.w3.org/2000/svg">
<path fill-rule="evenodd" clip-rule="evenodd" d="M5.79597 1.22525H11.1293V2.55856H5.79597V1.22525ZM5.79597 5.89191H11.1293V7.22525H5.79597V5.89191ZM5.79597 10.5586H11.1293V11.8919H5.79597V10.5586ZM3.72766 0L4.52028 0.609688L2.14428 3.69853L0 1.82228L0.6585 1.06972L2.00125 2.24391L3.72766 0ZM3.72766 4.66666L4.52028 5.27637L2.14428 8.36519L0 6.48894L0.6585 5.73637L2.00125 6.91056L3.72766 4.66666ZM3.72766 9.33334L4.52028 9.94303L2.14428 13.0319L0 11.1556L0.6585 10.4031L2.00125 11.5772L3.72766 9.33334Z" fill="#0EE08E"/>
</svg>
